HIERARCHY
ROOT joint_0
{
	OFFSET 0.000000 0.000000 0.000000
	CHANNELS 6 Xposition Yposition Zposition Zrotation Yrotation Xrotation 
	JOINT joint_1
	{
		OFFSET 0.000000 0.000000 0.000000
		CHANNELS 3 Zrotation Yrotation Xrotation
		JOINT joint_2
		{
			OFFSET 3.811170 -8.520760 0.839290
			CHANNELS 3 Zrotation Yrotation Xrotation
			JOINT joint_3
			{
				OFFSET 2.562200 -7.039590 0.000000
				CHANNELS 3 Zrotation Yrotation Xrotation
				JOINT joint_4
				{
					OFFSET 0.157640 -0.433110 2.322550
					CHANNELS 3 Zrotation Yrotation Xrotation
					End Site
					{
						OFFSET 0.000000 0.000000 0.000000
					}
				}
			}
		}
	}
	JOINT joint_5
	{
		OFFSET 0.000000 0.000000 0.000000
		CHANNELS 3 Zrotation Yrotation Xrotation
		JOINT joint_6
		{
			OFFSET -3.848050 -8.780180 0.839290
			CHANNELS 3 Zrotation Yrotation Xrotation
			JOINT joint_7
			{
				OFFSET -2.568260 -7.056230 0.000000
				CHANNELS 3 Zrotation Yrotation Xrotation
				JOINT joint_8
				{
					OFFSET -0.164730 -0.452590 2.363150
					CHANNELS 3 Zrotation Yrotation Xrotation
					End Site
					{
						OFFSET 0.000000 0.000000 0.000000
					}
				}
			}
		}
	}
	JOINT joint_9
	{
		OFFSET 0.028270 2.035590 -0.193380
		CHANNELS 3 Zrotation Yrotation Xrotation
		JOINT joint_10
		{
			OFFSET 0.056720 2.048850 -0.042750
			CHANNELS 3 Zrotation Yrotation Xrotation
			JOINT joint_11
			{
				OFFSET -0.054170 1.746240 0.172020
				CHANNELS 3 Zrotation Yrotation Xrotation
				JOINT joint_12
				{
					OFFSET 0.104070 1.761360 -0.123970
					CHANNELS 3 Zrotation Yrotation Xrotation
					End Site
					{
						OFFSET 0.000000 0.000000 0.000000
					}
				}
			}
			JOINT joint_13
			{
				OFFSET 3.362410 1.200890 -0.311210
				CHANNELS 3 Zrotation Yrotation Xrotation
				JOINT joint_14
				{
					OFFSET 4.983000 -0.000000 -0.000000
					CHANNELS 3 Zrotation Yrotation Xrotation
					JOINT joint_15
					{
						OFFSET 3.483560 -0.000000 -0.000000
						CHANNELS 3 Zrotation Yrotation Xrotation
						JOINT joint_16
						{
							OFFSET 0.715260 -0.000000 -0.000000
							CHANNELS 3 Zrotation Yrotation Xrotation
							End Site
							{
								OFFSET 0.000000 0.000000 0.000000
							}
						}
					}
				}
			}
			JOINT joint_17
			{
				OFFSET -3.136600 1.374050 -0.404650
				CHANNELS 3 Zrotation Yrotation Xrotation
				JOINT joint_18
				{
					OFFSET -5.241900 -0.000000 -0.000000
					CHANNELS 3 Zrotation Yrotation Xrotation
					JOINT joint_19
					{
						OFFSET -3.444170 -0.000000 -0.000000
						CHANNELS 3 Zrotation Yrotation Xrotation
						JOINT joint_20
						{
							OFFSET -0.622530 -0.000000 -0.000000
							CHANNELS 3 Zrotation Yrotation Xrotation
							End Site
							{
								OFFSET 0.000000 0.000000 0.000000
							}
						}
					}
				}
			}
		}
	}
}
MOTION
Frames: 9
Frame Time: 0.031667
4.847296 15.567984 -2.364512 -5.013435 -25.555210 3.808602 -8.623472 14.294803 -21.027285 -5.739936 8.986856 19.932515 -3.537280 7.292613 -6.406542 0.830429 -0.391169 -1.114200 -5.633826 -2.920702 -1.855584 12.499545 -7.587296 11.571512 -3.257222 -7.987268 -3.207957 0.037185 -2.130963 5.988909 -0.044636 2.604825 -4.287807 -3.382414 -3.857077 -4.423688 -0.572361 1.051156 5.121800 -3.795181 -1.531039 0.896749 -29.495526 -28.808655 10.231720 50.806574 -48.376522 -19.841232 -0.298664 -1.407675 0.545390 -7.108769 -0.012680 -0.006229 69.377107 17.126829 30.080594 -52.443675 49.522239 -23.466539 0.612102 -1.021208 -6.236425 7.111140 -0.001037 0.010019 
4.817107 15.564921 -2.375835 -4.960369 -25.233309 3.832239 -10.880040 19.156662 -26.946797 -7.936752 12.574344 21.789156 -4.267277 6.966714 -10.985663 1.179379 -0.697874 -2.022851 -8.196942 -3.331608 -0.042811 15.946774 -8.345388 10.113462 -3.163175 -5.528204 -5.305417 0.061752 -1.941631 5.672106 0.665546 1.184552 2.655637 -5.788087 -6.169817 -7.969036 -3.063146 2.447825 0.410485 -3.621724 -1.722509 0.546108 -29.960867 -29.458404 12.266788 56.442023 -50.925621 -23.247621 1.065184 -2.436950 -0.552368 -7.088701 -0.012280 0.009174 70.379697 19.631835 27.266199 -54.065158 51.415420 -25.131546 -1.572278 1.353939 -6.675004 7.090791 0.012320 0.021387 
4.786918 15.561857 -2.387158 -4.907456 -24.911741 3.856510 -10.714388 23.788215 -25.770077 -8.088795 12.125981 19.358185 -2.431902 3.159977 -11.060188 1.213393 -1.820635 -5.229256 -8.007517 -7.601274 1.700532 16.149788 -8.703752 8.786853 -1.032724 -4.515380 -4.337144 -0.211376 -1.731258 5.336480 -0.229294 0.407399 -0.670750 -4.336618 -9.314892 -4.994128 -1.460209 3.172239 1.453231 -2.208847 -2.306763 0.426917 -34.064933 -33.335476 12.820511 63.816015 -54.469615 -27.416528 -1.848209 -1.819829 3.206638 -7.065163 -0.035073 0.026072 72.572440 24.736396 32.163805 -60.967491 53.478004 -24.357076 -4.374490 3.233885 -5.353531 7.075656 0.026483 0.036145 
4.756367 15.558990 -2.397638 -4.866138 -24.549143 3.883723 -9.952646 24.938701 -29.465532 -11.238929 13.584909 17.667879 -3.592053 -0.411395 -5.394453 1.287024 -2.461760 -7.272075 -4.562066 -7.898057 -0.055185 18.710600 -9.694113 7.286300 -3.924167 -0.905769 -9.374639 -0.802993 -1.701103 5.460836 2.705368 0.743911 4.925693 -9.668683 -6.980160 -6.836371 2.415741 4.507404 -0.909423 -1.519995 -1.523491 1.994601 -41.326900 -37.206574 28.359504 62.123548 -57.629079 -20.231452 2.421278 -3.054618 1.473505 -7.076061 -0.049600 0.025449 81.476084 26.020673 43.796382 -61.220563 54.267701 -24.139840 -0.724422 -0.430038 -4.473944 7.095279 0.027380 0.047068 
4.725811 15.556126 -2.408110 -4.825040 -24.186731 3.911492 -18.373368 30.162208 -34.200420 -13.704612 13.313673 23.597790 -3.053526 2.364733 -10.432512 1.458441 -1.709989 -4.938603 -13.911101 -10.825969 1.171436 25.694231 -12.897000 14.670869 1.474935 0.102484 -5.841796 -1.644869 -2.124074 7.288506 0.602286 5.212199 2.720598 -5.384319 -6.709763 -13.190504 3.152516 7.485199 -6.669393 -1.485636 -0.693622 2.391341 -40.657678 -35.270591 17.429695 60.436635 -60.304526 -17.645059 -0.102947 -1.404319 -0.747014 -7.090564 -0.049328 0.019615 75.090007 27.885253 42.594275 -60.661260 57.256103 -25.465286 -1.988848 -1.369397 -5.887866 7.110464 0.021908 0.067323 
4.695186 15.553324 -2.417671 -4.793570 -23.777342 3.938570 -12.145840 28.307577 -40.002820 -7.921752 14.795445 24.180085 -5.118906 2.507972 -11.549911 1.921901 0.967806 2.853808 -18.354943 -4.407052 6.056862 26.440180 -9.811913 12.247540 8.495751 3.533739 -14.794572 -1.890096 -1.724950 6.439530 -1.286695 2.661281 1.484675 -9.647511 -4.877119 -8.978481 0.163565 5.744198 -5.436484 -2.637653 0.328957 1.535240 -28.461144 -37.702248 7.514017 60.015288 -64.163302 -18.541585 -1.707210 -2.585617 -3.443918 -7.119231 -0.046614 0.028047 60.875536 30.613864 23.416848 -66.633413 59.633958 -27.775728 1.627946 -0.407846 -7.450878 7.149996 0.027617 0.078613 
4.664560 15.550523 -2.427211 -4.762252 -23.367880 3.965985 -8.161722 29.664594 -44.681366 -11.857144 15.531907 25.857418 -4.742943 0.687661 -11.560519 2.374026 4.458432 12.655368 -25.476665 -5.102556 11.418696 25.333272 -14.947527 14.475671 15.291793 8.530623 -16.397739 -1.527323 -1.136914 3.719060 0.683425 -3.740622 4.833924 -11.973749 -6.734556 -9.059762 2.428742 6.258905 -4.016662 -2.839362 1.066755 1.633051 -17.510506 -41.609710 -11.557094 63.342047 -67.187212 -21.588517 0.980402 -0.815304 -3.653302 -7.186532 -0.040162 0.022960 53.753466 33.326685 28.050919 -73.468383 64.248332 -32.212791 -4.347581 -2.199838 -12.479789 7.216116 0.020287 0.089107 
4.634356 15.547652 -2.435450 -4.730384 -22.914324 3.990155 -11.496751 32.206261 -51.514800 -15.128729 17.415669 29.537372 5.678769 3.559543 -1.783390 2.837891 5.286578 14.818649 -32.239719 -7.144102 8.283021 28.585136 -16.087932 16.858191 25.191227 5.470783 -16.709419 -2.203222 -0.269757 1.472440 4.982807 0.073193 -2.538270 -9.895820 -4.933704 -10.107615 0.838579 8.328237 -3.929962 -1.624105 1.923037 3.476784 -0.196844 -38.816867 -6.485228 62.706034 -72.813122 -21.168435 0.405975 -2.158302 -6.412273 -7.212742 -0.021904 0.023152 46.882282 33.043687 28.270288 -72.710198 65.162552 -33.245075 5.313027 0.093328 -18.942650 7.246156 0.020422 0.085890 
4.604167 15.544780 -2.443646 -4.698308 -22.460527 4.014283 -18.029343 33.310983 -64.149471 -11.101656 21.056059 40.514408 6.429306 3.265845 0.499511 2.949724 3.007374 7.739157 -25.039678 -13.264082 -2.723031 24.044139 -22.354133 30.811735 32.285498 1.546324 -18.692286 -2.838975 -0.561714 2.087029 2.219512 5.046438 -4.456652 -9.382000 -7.529455 -9.198290 3.020442 9.304879 -6.678291 1.224681 2.976714 4.909328 8.575421 -38.706033 -25.295942 75.359519 -77.203650 -35.079469 1.110782 -1.759744 -23.509380 -7.195223 -0.021716 0.023465 35.680109 32.640545 34.149204 -85.662054 65.485982 -40.278145 -2.091404 -0.301355 -22.217559 7.238626 0.020639 0.078588 
